<svg xmlns="http://www.w3.org/2000/svg" xmlns:xlink="http://www.w3.org/1999/xlink" width="50" zoomAndPan="magnify" viewBox="0 0 37.5 37.499999" height="50" preserveAspectRatio="xMidYMid meet" version="1.0"><defs><g/></defs><g fill="#ffffff" fill-opacity="1"><g transform="translate(4.441319, 30.027463)"><g><path d="M 1.484375 -20.109375 L 4.625 -20.109375 L 8.734375 -10.421875 L 8.734375 -20.109375 L 12.421875 -20.109375 L 12.421875 0 L 9.40625 0 L 5.28125 -10.421875 L 5.28125 0 L 1.484375 0 Z M 1.484375 -20.109375 "/></g></g></g><g fill="#ffffff" fill-opacity="1"><g transform="translate(18.368943, 30.027463)"><g><path d="M 1.484375 -20.109375 L 8.25 -20.109375 C 10.019531 -20.109375 11.34375 -19.609375 12.21875 -18.609375 C 13.09375 -17.609375 13.53125 -16.164062 13.53125 -14.28125 C 13.53125 -12.125 13.019531 -10.628906 12 -9.796875 C 10.988281 -8.960938 9.5625 -8.546875 7.71875 -8.546875 L 5.9375 -8.546875 L 5.9375 0 L 1.484375 0 Z M 7.421875 -11.640625 C 8.203125 -11.640625 8.71875 -11.847656 8.96875 -12.265625 C 9.226562 -12.679688 9.359375 -13.375 9.359375 -14.34375 C 9.359375 -15.238281 9.234375 -15.898438 8.984375 -16.328125 C 8.734375 -16.765625 8.207031 -16.984375 7.40625 -16.984375 L 5.9375 -16.984375 L 5.9375 -11.640625 Z M 7.421875 -11.640625 "/></g></g></g></svg>