<svg xmlns="http://www.w3.org/2000/svg" xmlns:xlink="http://www.w3.org/1999/xlink" width="50" zoomAndPan="magnify" viewBox="0 0 37.5 37.499999" height="50" preserveAspectRatio="xMidYMid meet" version="1.0"><defs><g/></defs><g fill="#ffffff" fill-opacity="1"><g transform="translate(4.086815, 30.027463)"><g><path d="M 1.484375 -20.109375 L 4.625 -20.109375 L 8.734375 -10.421875 L 8.734375 -20.109375 L 12.421875 -20.109375 L 12.421875 0 L 9.40625 0 L 5.28125 -10.421875 L 5.28125 0 L 1.484375 0 Z M 1.484375 -20.109375 "/></g></g></g><g fill="#ffffff" fill-opacity="1"><g transform="translate(18.014439, 30.027463)"><g><path d="M 1.484375 -20.109375 L 7.03125 -20.109375 C 9.226562 -20.109375 10.890625 -19.71875 12.015625 -18.9375 C 13.140625 -18.164062 13.703125 -16.785156 13.703125 -14.796875 C 13.703125 -13.453125 13.523438 -12.382812 13.171875 -11.59375 C 12.828125 -10.800781 12.1875 -10.179688 11.25 -9.734375 L 14 0 L 9.40625 0 L 7.203125 -9.015625 L 5.9375 -9.015625 L 5.9375 0 L 1.484375 0 Z M 7.171875 -11.5625 C 8.066406 -11.5625 8.691406 -11.796875 9.046875 -12.265625 C 9.398438 -12.742188 9.578125 -13.457031 9.578125 -14.40625 C 9.578125 -15.3125 9.410156 -15.988281 9.078125 -16.4375 C 8.753906 -16.894531 8.1875 -17.125 7.375 -17.125 L 5.9375 -17.125 L 5.9375 -11.5625 Z M 7.171875 -11.5625 "/></g></g></g></svg>