<svg xmlns="http://www.w3.org/2000/svg" xmlns:xlink="http://www.w3.org/1999/xlink" viewBox="0,0,256,256" width="50px" height="50px" fill-rule="nonzero"><g fill="#ffffff" fill-rule="nonzero" stroke="none" stroke-width="1" stroke-linecap="butt" stroke-linejoin="miter" stroke-miterlimit="10" stroke-dasharray="" stroke-dashoffset="0" font-family="none" font-weight="none" font-size="none" text-anchor="none" style="mix-blend-mode: normal"><g transform="scale(5.12,5.12)"><path d="M12,7.25v21.75h-8.63c-0.25,-1.3 -0.37,-2.63 -0.37,-4c0,-7.29 3.54,-13.75 9,-17.75zM4.5,33h7.5v9.75c-3.34,-2.45 -5.97,-5.83 -7.5,-9.75zM22,33h23.5c-3.2,8.19 -11.17,14 -20.5,14c-1.02,0 -2.02,-0.07 -3,-0.21zM47,25c0,1.37 -0.12,2.7 -0.37,4h-24.63v-25.79c0.98,-0.14 1.98,-0.21 3,-0.21c12.15,0 22,9.85 22,22z"></path></g></g></svg>